<svg version="1.1" id="Layer_1" xmlns="http://www.w3.org/2000/svg" xmlns:xlink="http://www.w3.org/1999/xlink" x="0px" y="0px"
	 width="79px" height="65.7px" viewBox="0 0 79 65.7" enable-background="new 0 0 79 65.7" xml:space="preserve">
<g id="briefcase">
	<path fill="#FFFFFF" stroke="#FFFFFF" stroke-width="2" stroke-miterlimit="10" d="M24.4,11.7c0,0-0.1-9.1,0-9.4s0.5-1.1,0.8-1.3
		c0.3-0.2,29.4-0.2,29.7,0s0.8,1.1,1,1.5s0,9.1,0,9.1h-2.2c0,0,0.3-5.4,0-6.1s-0.3-1.2-0.9-1.6s-25-0.2-25.2,0s-0.9,1.5-1,1.7
		s0,6.1,0,6.1H24.4z"/>
	<path fill="#FFFFFF" stroke="#FFFFFF" stroke-width="2" stroke-miterlimit="10" d="M12.1,16.2c-0.4-0.4-7.2-0.2-7.4,0
		c-0.6,0.4-3.5,2.2-3.7,3.1c0,0.2-0.2,39.9,0,40.4s4.4,5,5,5c0.8,0,6,0.2,6.1,0S12.5,16.6,12.1,16.2z"/>
	<path fill="#FFFFFF" stroke="#FFFFFF" stroke-width="2" stroke-miterlimit="10" d="M66.8,16.2c0.1-0.2,7.3-0.1,7.5,0
		s3.8,2.8,3.7,3.1s0.1,40.3,0,40.4c-0.2,0.5-4.6,4.8-5,5c-0.3,0.2-6,0.2-6.2,0S66.7,16.4,66.8,16.2z"/>
	<path fill="#FFFFFF" stroke="#FFFFFF" stroke-width="2" stroke-miterlimit="10" d="M17.1,16.2c0.2-0.4,44.5-0.3,44.8,0
		s0.3,48.3,0,48.5c-0.3,0.2-44.6,0.3-44.8,0S16.9,16.6,17.1,16.2z"/>
</g>
<g id="Layer_1_1_">
</g>
</svg>
