<svg class="draw" version="1.1" xmlns="http://www.w3.org/2000/svg" xmlns:xlink="http://www.w3.org/1999/xlink" x="0px" y="0px" width="1899px"
   height="619px" viewBox="0 0 1899 619" enable-background="new 0 0 1899 619" xml:space="preserve">
  <path fill="none" stroke="#231F20" stroke-width="4" stroke-linecap="round" stroke-linejoin="round" stroke-miterlimit="10" d="
    M0,504.3l7.8,0.3c0,0-1-8,0.3-8s16,0,16,0s2.3-2.7,4-3s28,0,30.7,0.3s2,2,3,2.3s9.7,1.7,11,1.3s31-22.3,31-22.3l4.7,6.3l1-8h3.7
    l0.3-5.2l7.2,1l3.8,4.8l6.8-0.2l18,15.2l0.8,22.2l9.2-0.2l1.2-75l5-6.5l21-0.1l0.5-9.8l13.2-0.8l3.3-153l1.3-0.7l1.5-50.7l12.8-0.2
    l0.5-55.2h1.5v-19l1-0.2l0.2-10.8l7.3-1v-4.8l5.2-0.3l5.8-22.5l2-0.8l3.7-12l8.2-0.2l3.5-13.1l2.5-0.5l2.5-10.2l4.8-0.2l6.9-22.2
    l3.1-0.9l3.8-6L282.2,2v32.6l4.8,6.5l2,2.2l5.6,20.1h5.2l5.9,24.2l6.4,0.2l6.6,23.8l5.4,7.6l1,10.6l7.2,1.4l3.8,10.5l0.8,75.8
    l7.8,0.6l3.9,10.2l0.5,25.2L348.2,396l21,2.3l0.3-6.2l18.8,0.7l2.2,3.2l0.2,4.2l38.7,4.7l16.3,1.8l-0.2-9.5l9.5,0.2l22.7-0.8
    l0.2-8.7l3.3-0.5l0.8-17.2l2.3-0.3l0.2-6.8l24.9,0.2l1.1,3.9h3.4l0.6-3.5l24.4,0.4l0.9,6.2l45.6,0.6l0.2-12.6l28.4,0.2l0.5,13.4
    l36.4,0.2l-3,13l0.8,40.9l15.1,7l8.2-0.5l0.5-87.9l1.6-6.5l7.9-0.5l0.1-12l1.8-7.8l6.8-0.1l0.6-14.9l2-4l6.6-0.2l0.6-14.2l2.4-3.8
    l60,0.2l59.5-4.6l10.6,6.6l0.4,13.2l8.1,5.6l0.4,11.5l8.8,6.1l0.9,14l9.1,6l1,46.5l24.9-30.1l74.6,21.1v-58.2l-4.2-4.9l-0.4-8.1
    l16.5-1.5l0.2-31.1l2.2-4.1l-0.2-15.4l5.5-10.5l0.4-8l2.2-0.4l1,8.4l5.1,8.6h1.8v-19.4l-2-4l2-4.1l-0.6-27.2c0,0,0.2-6.4,1-7.6
    s3.4-5.4,3.8-6.6s0.9-6.6,0.9-6.6s2.4-1.5,3.1-1.4s0.9,6.5,0.9,6.5l4,0.2v-13.8l-0.5-4.1l1-2.4V144l-0.9-5.8l-1.8-1.8l1.6-2.6
    l0.8-4.8l3-1l0.5-13.6l7-15.8c0,0-1.2-4.8-1.4-6.1s2.1-6.9,2-7.8s2.2-9.8,2.2-9.8l0.4-57.8l0.9,10.1c0,0,6,4.2,6.2,6.9
    s-0.8,3.6-1.4,4.5s-4.6-1.9-5.1-2.5s0.2,37,0.2,37l4.9,11.9c0,0,1,3.1,1.6,4s0.5,3.9,0.2,4.6s0,7.6,0.6,9.2s3.8,7.4,4.2,8.2
    s2.5,2.2,2.5,2.2l0.2,11.8l4.5,2.9l1,6.1l-0.1,3.1l-0.8,1l-0.2,21.9c0,0,1.5,3.6,1.6,4.4s-0.4,18-0.4,18s3.1,0.1,3.1-0.6
    s4-6.5,4.6-6.6s2,13.2,2,13.2l4.2,0.6l0.4,35.4c0,0,1.6,1.5,2,2.1s-0.8,3.2-1.2,4.4s0.5,22.4,0.5,22.4l1.9,0.4l4.4-7.8l0.4-8
    l1.2,0.1l1.5,6.9l6,9.5v16.1c0,0,2.6,1.6,2.9,2.6s1.2,2.5,1.2,3.2s-0.2,27.4-0.2,27.4l16.1,6.4l0.4,8.2l-3.8,4.5l2.1,102l29.4,8
    l1.1,74.6l31.3,6l1,9.5l12.2-2.5l0.5-7.3l22.5-1.3v-9l39.2-2.5v-4.5l9.2-1.2c0,0-4.2-148.2-4.3-154.2s-3-105.2-3-109
    s-4.5-146.7-4.3-151.2s-1-20-1-20s-44.2-26.5-44.7-27.3s20-5.3,24-6.2s144-23.8,237-21.8s149,10.7,180.3,18s71,29,74,37.3l-42,16.7
    l3.3,75.7l2.5,3l-0.5,4.5L1668,344l159-56.5l-6.5-132.8c0,0,3.2-2,3.8-1s21-10.2,26.8-11.2s26-2.5,29.8-0.8s-3.8,6.8-5.5,6.8
    s-8.5-5.5-10.2-5.2s-14.8,3.8-23.5,11s-15.8,17.8-15.8,17.8l6.2,114l67-23.2"/>
</svg>