<?xml version="1.0" encoding="utf-8"?>
<!-- Generator: Adobe Illustrator 15.0.0, SVG Export Plug-In . SVG Version: 6.00 Build 0)  -->
<!DOCTYPE svg PUBLIC "-//W3C//DTD SVG 1.1//EN" "http://www.w3.org/Graphics/SVG/1.1/DTD/svg11.dtd">
<svg version="1.1" id="Contours" xmlns="http://www.w3.org/2000/svg" xmlns:xlink="http://www.w3.org/1999/xlink" x="0px" y="0px"
	 width="2000px" height="958.5px" viewBox="0 0 2000 958.5" enable-background="new 0 0 2000 958.5" xml:space="preserve">
<path fill="none" stroke="#000000" stroke-linecap="round" stroke-linejoin="round" stroke-miterlimit="10" d="M-29.7,787.9
	L89,786.4c0,0,6.5-179,6.8-186.8s0.2-13.5,0.8-14.2s4.8-2.2,4-3.5s-3.5-1.8-3.5-2.5s2-56.2,2.2-63.5s2.9-65.1,2.9-66s1.1-0.6,2.1-1
	s1.9-1.2,1.8-2.2s-2.1-2-2.8-2.2s0-22.4,0-26.8s1.5-38.5,1.5-39.2s1.8-0.4,2.5-0.8s1.8-1.1,1.4-1.9s-0.5-1.1-1.2-1.5
	s-1.5-0.8-2.1-0.8s0-12-0.1-16.2s0.8-13.1,0.5-15.9s-0.8-4.1-0.9-5.6s0.4-2.4,0-3s-4.4-5-4.6-7s-0.9-6.5,0.2-8.6s5.5-4.9,6-5.6
	s1.1-0.6,1.1-7.5s-0.1-10.6,0.1-11s3.9-1.4,4-1.9s0.8-1.1,0.1-1.6s-2-1.1-2.8-1.2s-0.6-2.6-0.6-7.1l0.1-3.8l0.8-0.8
	c0,0,0.1-17.2,0.1-17.4s0.7-0.9,1.4-0.9s3.8-1.2,3.7-1.8s-0.6-1.1-1.5-1.5s-2.3-0.5-2.7-1.1s-0.2-6.8-0.2-9.4s0.2-7.1,0.2-7.1
	s4.3-0.9,4.5-1.3s0-0.8-0.8-1.5s-2.3-0.9-2.7-1.2s-0.4-4.6-0.4-7.4s0-2.7,0.2-3.5s3.8-1.2,3.9-1.8s-0.4-1.7-1.6-1.9
	s-1.9-0.2-1.9-0.2s0.4-18.8,0.5-21.9s0.8-15.2,0.8-16.8s0.8-2.5,1.8-3.4s7.1-1.8,10.5-2s5.9-0.5,5.9-0.5s0.2-22.2,0.2-28
	s0.5-40.9,0.5-43.1s1.6-6.7,2.7-8.4s23-17.2,28.8-20.8s39-24.5,44.7-27.8s13.7-8.4,18.3-8.6s20.4,5.3,29.7,8.2s47.7,15.8,52.1,17.4
	s7,2.8,8.1,4s8,11.4,10.2,14.9s4.6,7.4,4.6,10.7s0.1,23.8,0.1,23.8s4.9,0.4,8.7,5.9s5.3,7.6,5.5,9.2s0.2,10.8,0.2,10.8
	s3.2,0.2,5,0.8s5.2,3.1,7.1,5.6s4.9,7.6,5.2,8.3s0.5,10,0.5,10s2.6,0.9,4.4,1.7s6.2,3.7,7.8,5.3s3,4.8,3.5,6.1s0.9,5.5,0.9,5.5
	s9.2,2.8,11.5,3.7s7,2.3,9,5.1s5.8,8.6,7.1,10.5s2.9,3.6,3,6s0.1,57.9,0.1,57.9s5.2,6.8,7.4,9.5s4.8,5.6,4.8,7.8s-0.1,31.4-0.1,31.4
	l-2,0.2c0,0,1.3,2,2.1,2.8l0.1,10.1l-1.9,0.2c0,0,0.4,1.9,1.9,2.7v14.1l-2.1,0.2c0,0,0.8,2.2,2.4,2.8v25.9l-1.4,0.2
	c0,0,0.8,1.6,1.9,2.2v30.2l-1.9,0.6c0,0,1.2,2,2,2.6l-0.1,33.2l-1.9,0.8c0,0,1.1,2.3,1.8,2.9l0.3,0.4v53.9l-1.3,0.3
	c0,0,0.3,1.6,1.2,2.2l0.6,108.5l-2.2,0.3c0,0,0.7,1.9,2.2,2.8l1.1,164.7c0,0,64.9-0.9,92.2-1.4s58.8-1,81-1.2s172.1-6.9,189.2,4.9
	c0,0,222.9-7.3,436.9,1c0,0,2-11.2,189.2-4.9c22.2,0.7,53.8,0.8,81,1.2s92.2,1.8,92.2,1.8l1.4-164.4c1.6-0.8,2.2-2.8,2.2-2.8
	l-2.2-0.3l0.6-108.5c0.9-0.6,1.2-2.2,1.2-2.2l-1.3-0.3v-53.9l0.3-0.4c0.7-0.7,1.8-2.9,1.8-2.9l-1.9-0.8l-0.1-33.2
	c0.8-0.6,2-2.6,2-2.6l-1.9-0.6v-30.2c1.1-0.6,1.9-2.2,1.9-2.2l-1.4-0.2v-25.9c1.6-0.6,2.4-2.8,2.4-2.8l-2.1-0.2v-14.1
	c1.5-0.8,1.9-2.7,1.9-2.7l-1.9-0.2l0.1-10.1c0.8-0.8,2.1-2.8,2.1-2.8l-2-0.2c0,0-0.1-29.2-0.1-31.4s2.6-5,4.8-7.8s7.4-9.5,7.4-9.5
	s0-55.5,0.1-57.9s1.8-4.1,3-6s5.1-7.8,7.1-10.5s6.7-4.2,9-5.1s11.5-3.7,11.5-3.7s0.4-4.2,0.9-5.5s2-4.4,3.5-6.1s5.9-4.6,7.8-5.3
	s4.4-1.7,4.4-1.7s0.2-9.2,0.5-10s3.2-5.8,5.2-8.3s5.3-5,7.1-5.6s5-0.8,5-0.8s0.1-9.2,0.2-10.8c0.2-1.7,1.8-3.8,5.5-9.2
	s8.7-5.9,8.7-5.9s0.1-20.6,0.1-23.8s2.4-7.2,4.6-10.7s9.1-13.7,10.2-14.9c1.1-1.2,3.8-2.4,8.1-4s42.8-14.5,52.1-17.4
	s25-8.4,29.7-8.2s12.7,5.2,18.3,8.6s38.9,24.2,44.7,27.8s27.7,19.1,28.8,20.8s2.7,6.2,2.7,8.4s0.5,37.2,0.5,43.1s0.2,28,0.2,28
	s2.5,0.2,5.9,0.5s9.4,1.1,10.5,2s1.8,1.8,1.8,3.4s0.8,13.8,0.8,16.8c0.1,3.1,0.5,21.9,0.5,21.9s-0.8,0-1.9,0.2s-1.7,1.2-1.6,1.9
	c0.1,0.7,3.7,1,3.9,1.8s0.2,0.7,0.2,3.5s-0.1,7.2-0.4,7.4c-0.3,0.2-1.9,0.5-2.7,1.2s-0.9,1.1-0.8,1.5s4.5,1.3,4.5,1.3
	s0.2,4.5,0.2,7.1s0.1,8.8-0.2,9.4c-0.3,0.6-1.8,0.7-2.7,1.1s-1.3,0.8-1.5,1.5s2.9,1.8,3.7,1.8s1.4,0.7,1.4,0.9s0.1,17.4,0.1,17.4
	l0.8,0.8l0.1,3.8c0,4.5,0.1,7-0.6,7.1s-2.1,0.8-2.8,1.2s0,1.1,0.1,1.6s3.8,1.5,4,1.9s0.1,4.1,0.1,11s0.6,6.8,1.1,7.5s4.9,3.5,6,5.6
	s0.5,6.6,0.2,8.6s-4.2,6.4-4.6,7s0.1,1.5,0,3s-0.6,2.9-0.9,5.6s0.6,11.6,0.5,15.9s0.5,16.2-0.1,16.2s-1.4,0.4-2.1,0.8
	s-0.9,0.8-1.2,1.5s0.6,1.5,1.4,1.9s2.5,0,2.5,0.8s1.5,34.9,1.5,39.3s0.6,26.5,0,26.8s-2.6,1.2-2.8,2.2s0.8,1.9,1.8,2.2
	s2.1,0.1,2.1,1c0,0.9,2.6,58.8,2.9,66s2.2,62.8,2.2,63.5s-2.8,1.2-3.5,2.5s3.5,2.8,4,3.5s0.5,6.5,0.8,14.2
	c0.2,7.1,6.7,186.5,6.7,186.5l119.3,1.3"/>
</svg>
