<svg version="1.1" id="Layer_1" xmlns="http://www.w3.org/2000/svg" xmlns:xlink="http://www.w3.org/1999/xlink" x="0px" y="0px"
	 width="100px" height="84px" viewBox="0 0 97.957 83.293" style="enable-background:new 0 0 97.957 83.293;"
	 xml:space="preserve">
<path style="fill:#FFFFFF;stroke:#FFFFFF;stroke-width:2;stroke-miterlimit:10;" d="M9.676,45.129l-2-0.009
	c-3.683-0.015-6.678-3.021-6.678-6.7V7.7c0-3.694,3.006-6.7,6.7-6.7h62.608c3.689,0,6.69,3.006,6.69,6.7v26.798H44.114
	c-4.955,0-8.69,3.739-8.69,8.698v1.923H22.888L9.701,57.969L9.676,45.129z"/>
<path style="fill:#FFFFFF;stroke:#FFFFFF;stroke-width:2;stroke-miterlimit:10;" d="M80.797,71.662H44.114
	c-2.585,0-4.688-2.105-4.688-4.695V43.323c0-2.589,2.103-4.696,4.688-4.696h48.188c2.591,0,4.696,2.107,4.696,4.696v23.644
	c0,2.578-2.1,4.684-4.682,4.695l-2,0.008l-0.021,9.257L80.797,71.662z"/>
<g id="Layer_1_1_">
</g>
</svg>
