<svg version="1.1" xmlns="http://www.w3.org/2000/svg" xmlns:xlink="http://www.w3.org/1999/xlink" x="0px" y="0px" width="65.3px"
	 height="65.3px" viewBox="0 0 65.3 65.3" enable-background="new 0 0 65.3 65.3" xml:space="preserve">
<g id="Layer_4">
	<path fill="#FFFFFF" stroke="#FFFFFF" stroke-miterlimit="10" d="M17.3,44.1c0,0-5.9,0.2-8,1c-2.1,0.8-3.7,2.3-4.2,3.1
		c-0.9,1.2-1.3,3.1-1.4,5.1c-0.1,2,0.8,4.5,1.2,5.5c0.4,1,2.5,3.5,3.4,4.1s3.7,1.1,5.7,0.8c2-0.4,5.4-1.5,7.5-3c2.1-1.5,4.8-4,6-6
		c1.2-2,1.9-3.8,2.2-5.2c0.3-1.5-1-3.4-2-3.9C26.7,45,24.7,43.8,17.3,44.1z"/>
	<path fill="#FFFFFF" stroke="#FFFFFF" stroke-miterlimit="10" d="M46.4,44.1c0,0,4.9,0,7,0.5s4.6,1.3,5.4,2.5
		c0.8,1.2,2.2,3.3,1.8,7.4c-0.4,4.1-1.8,5.8-2.9,7c-1.1,1.2-3.3,2.1-4.9,2.3C51.3,64,47,63.2,44,61.2s-7.1-5.7-8.2-8.9
		c-1.1-3.1-1-5.4,0-6.4C36.8,44.9,39.1,44,46.4,44.1z"/>
	<path fill="none" stroke="#FFFFFF" stroke-miterlimit="10" d="M29.4,48.8c0,0,2.9-0.8,5.8,0"/>
	<line fill="none" stroke="#FFFFFF" stroke-miterlimit="10" x1="21.2" y1="44" x2="43.4" y2="44"/>
</g>
<g id="Layer_2">
	<path fill="#FFFFFF" stroke="#FFFFFF" stroke-miterlimit="10" d="M47.6,38.1c1,0,8.5,0.5,16.7,3c0.7-1.8-0.1-10.2-1.6-18.3
		c-1.5-8.1-5.2-11.4-7.3-13S50.1,6.1,44,4c-6.2-2.1-9.7-1.7-9.7-1.7C33.9,1.5,32.9,1,31.4,1c-1.5,0-2.6,1.4-2.6,1.4
		c-5.4,0.3-12.7,2.6-17.7,6s-8.2,8.6-8.8,10.9S-0.1,31.8,0,35c0.1,3.2-0.1,6.9,1.6,6.4c8.6-2.6,13.4-3.3,13.4-3.3s0-5.1,0.6-7.9
		c0.6-2.7,1.2-2.1,2.2-3.3s4.2-4.6,7.6-5.3c3.4-0.7,9.1-0.8,11.3-0.1s4.7,1.2,6.8,2.9c2.1,1.8,3,4.8,3.3,5.8c0.3,1,0.4,1.5,0.8,5
		L47.6,38.1z"/>
	<g>
		<path fill="#FFFFFF" d="M47,37.3c-0.9-0.1-2.8-0.3-5.3-0.5c1.3-0.9,1.9-2.3,1.9-3.6c0-1.1-0.7-2-1.6-2.7c2.8,0.1,3.9,0.3,4.3,0.4
			C46.9,33.9,47,36.3,47,37.3z M15.6,37.3c0-1.2,0.1-4.1,0.3-6.2c2-0.2,12.4-0.6,20.8-0.6c0.7,0,1.3,0,1.9,0l0,0l0,0
			c0,0,3.8,0.6,3.8,2.7c0,1.6-1.3,3.3-3.6,3.4v0c-2.5-0.1-5.5-0.2-8.6-0.2C24.8,36.5,19.9,36.7,15.6,37.3z M18.5,32.6
			c-0.7,0-1.2,0.6-1.2,1.2s0.6,1.2,1.2,1.2s1.2-0.6,1.2-1.2S19.2,32.6,18.5,32.6z M39.4,32.3c-0.7,0-1.2,0.6-1.2,1.2
			s0.6,1.2,1.2,1.2s1.2-0.6,1.2-1.2S40,32.3,39.4,32.3z M23.4,32.2c-0.7,0-1.2,0.6-1.2,1.2s0.6,1.2,1.2,1.2s1.2-0.6,1.2-1.2
			S24.1,32.2,23.4,32.2z M33.8,32.2c-0.7,0-1.2,0.6-1.2,1.2s0.6,1.2,1.2,1.2s1.2-0.6,1.2-1.2S34.5,32.2,33.8,32.2z M28.4,32.2
			c-0.7,0-1.2,0.6-1.2,1.2s0.6,1.2,1.2,1.2s1.2-0.6,1.2-1.2S29.1,32.2,28.4,32.2z"/>
		<path fill="#FFFFFF" d="M36.7,31c0.6,0,1.2,0,1.7,0v0c0.7,0.1,3.4,0.8,3.4,2.2c0,1.4-1.2,2.8-3.1,2.9c-2.5-0.1-5.5-0.2-8.6-0.2
			c-5.1,0-9.8,0.3-14,0.8c0-1.3,0.1-3.4,0.2-5.2C19,31.4,28.8,31,36.7,31 M33.8,35.1c1,0,1.7-0.8,1.7-1.7c0-1-0.8-1.7-1.7-1.7
			c-1,0-1.7,0.8-1.7,1.7C32,34.4,32.8,35.1,33.8,35.1 M28.4,35.1c1,0,1.7-0.8,1.7-1.7c0-1-0.8-1.7-1.7-1.7s-1.7,0.8-1.7,1.7
			C26.7,34.4,27.5,35.1,28.4,35.1 M23.4,35.2c1,0,1.7-0.8,1.7-1.7s-0.8-1.7-1.7-1.7c-1,0-1.7,0.8-1.7,1.7S22.4,35.2,23.4,35.2
			 M39.4,35.3c1,0,1.7-0.8,1.7-1.7s-0.8-1.7-1.7-1.7s-1.7,0.8-1.7,1.7S38.4,35.3,39.4,35.3 M18.5,35.6c1,0,1.7-0.8,1.7-1.7
			c0-1-0.8-1.7-1.7-1.7c-1,0-1.7,0.8-1.7,1.7C16.8,34.8,17.5,35.6,18.5,35.6 M43.3,31.1c1.4,0.1,2.2,0.2,2.6,0.2
			c0.4,2.3,0.5,4.3,0.6,5.4c-0.8-0.1-2.1-0.2-3.6-0.3c0.8-0.9,1.2-2.1,1.2-3.2C44.1,32.5,43.8,31.8,43.3,31.1 M36.7,30
			c-9.1,0-21,0.5-21.3,0.7c-0.3,2.8-0.3,7.2-0.3,7.2c5-0.7,10.2-0.9,15-0.9c9.6,0,17.4,0.9,17.4,0.9s0.1-3.1-0.7-7.3
			C46,30.2,41.8,30,36.7,30L36.7,30z M39.5,37.2l-0.7,0c2.5-0.1,4.1-2,4.1-4c0-2.5-4.2-3.2-4.2-3.2h0.5c1.6,0.1,4,1.4,4,3.3
			C43.1,34.9,42,36.7,39.5,37.2L39.5,37.2z M33.8,34.1c-0.4,0-0.7-0.3-0.7-0.7c0-0.4,0.3-0.7,0.7-0.7s0.7,0.3,0.7,0.7
			C34.5,33.8,34.2,34.1,33.8,34.1L33.8,34.1z M28.4,34.1c-0.4,0-0.7-0.3-0.7-0.7c0-0.4,0.3-0.7,0.7-0.7s0.7,0.3,0.7,0.7
			C29.2,33.8,28.8,34.1,28.4,34.1L28.4,34.1z M23.4,34.2c-0.4,0-0.7-0.3-0.7-0.7s0.3-0.7,0.7-0.7s0.7,0.3,0.7,0.7
			S23.8,34.2,23.4,34.2L23.4,34.2z M39.4,34.3c-0.4,0-0.7-0.3-0.7-0.7s0.3-0.7,0.7-0.7s0.7,0.3,0.7,0.7S39.8,34.3,39.4,34.3
			L39.4,34.3z M18.5,34.6c-0.4,0-0.7-0.3-0.7-0.7s0.3-0.7,0.7-0.7s0.7,0.3,0.7,0.7S18.9,34.6,18.5,34.6L18.5,34.6z"/>
	</g>
</g>
</svg>
