<svg version="1.1" xmlns="http://www.w3.org/2000/svg" xmlns:xlink="http://www.w3.org/1999/xlink" x="0px" y="0px"
	 width="264px" height="157px" viewBox="0 0 264.01 153.701" style="enable-background:new 0 0 264.01 153.701;"
	 xml:space="preserve">
<g id="HTML">
	<g>
		<g>
			<path style="fill-rule:evenodd;clip-rule:evenodd;fill:#FFFFFF;stroke:#FFFFFF;stroke-width:2;stroke-miterlimit:10;" d="
				M153.258-1.503c0.659,0,12.773,8.293,19.075,13.964c3.124,2.811-45.671,102.559-62.577,136.318
				c-4.195-4.777-12.756-11.484-16.809-17.797C91.733,129.09,139.125,27.8,153.258-1.503z"/>
			<path style="fill-rule:evenodd;clip-rule:evenodd;fill:#FFFFFF;stroke:#FFFFFF;stroke-width:2;stroke-miterlimit:10;" d="
				M22.751,75.615c17.604,17.331,38.333,31.536,56.355,48.446c-1.773,10.816-3.273,18.566-5.933,25.707
				C65.583,145.627,18.276,105.451,1,89.457c0-8.24,0-16.478,0-24.718C22.8,43.036,47.586,24.321,70.208,3.44
				c2.375,3.687,6.875,16.687,8.898,23.729c0.982,3.417-8.312,9.881-12.854,13.842C53.331,52.284,34.333,67.06,22.751,75.615z"/>
			<path style="fill-rule:evenodd;clip-rule:evenodd;fill:#FFFFFF;stroke:#FFFFFF;stroke-width:2;stroke-miterlimit:10;" d="
				M190.828,149.768c-2.785-7.84-5.76-16.648-6.995-24.473c-0.5-3.168,45.5-38.334,57.417-47.702
				c-18.389-16.546-38.417-31.452-56.354-48.447c1.771-10.519,2.666-18.427,5.933-25.706c0.255-1.813,50.063,41.542,72.174,61.299
				c-0.169,9.722-0.68,17.116-0.988,25.706C244.091,104.961,197.798,146.311,190.828,149.768z"/>
		</g>
	</g>
</g>
<g id="Layer_1">
</g>
</svg>
