<svg version="1.1" xmlns="http://www.w3.org/2000/svg" xmlns:xlink="http://www.w3.org/1999/xlink" x="0px" y="0px" width="65.3px"
	 height="65.3px" viewBox="0 0 65.3 65.3" enable-background="new 0 0 65.3 65.3" xml:space="preserve">
<g id="Layer_4">
	<path fill="#FFFFFF" d="M17.3,44.1c0,0-5.7,0.6-7.8,1.4c-2.1,0.8-3.6,1.2-4.4,2.7c-0.7,1.3-1.3,3.1-1.4,5.1c-0.1,2,0.8,4.5,1.2,5.5
		c0.4,1,2.5,3.5,3.4,4.1s3.7,1.1,5.7,0.8c3.1-0.4,5.4-1.5,7.5-3c2.1-1.5,4.8-4,6-6c1.2-2,1.9-3.8,2.2-5.2c0.3-1.5-1-3.4-2-3.9
		C26.7,45,24.7,43.8,17.3,44.1z"/>
	<path fill="#FFFFFF" d="M46.4,44.1c0,0,4.9,0,7,0.5s4.6,1.3,5.4,2.5c0.8,1.2,2.2,3.3,1.8,7.4c-0.4,4.1-1.8,5.8-2.9,7
		c-1.1,1.2-3.3,2.1-4.9,2.3c-1.6,0.2-5.6-0.9-8.8-2.6c-3.3-1.7-7.1-5.7-8.2-8.9c-1.1-3.1-1-5.4,0-6.4C36.8,44.9,39.1,44,46.4,44.1z"
		/>
	<path fill="none" stroke="#FFFFFF" stroke-miterlimit="10" d="M29.4,48.8c0,0,3.3-0.6,5.8,0"/>
	<line fill="none" stroke="#FFFFFF" stroke-miterlimit="10" x1="21.2" y1="44" x2="43.4" y2="44"/>
</g>
<g id="Layer_2">
	<path fill="#FFFFFF" stroke="#FFFFFF" stroke-miterlimit="10" d="M48.1,37.9c1.4,0.9,8,0.7,16.3,3.2c0.7-1.8-0.1-10.2-1.6-18.3
		c-0.7-3.9-5.5-11.1-7.3-13C53.7,7.9,45.6,4.4,44,4c-4.2-0.9-9.7-1.7-9.7-1.7C33.9,1.5,32.9,1,31.4,1c-1.5,0-2.6,1.4-2.6,1.4
		c-5.4,0.3-11.9,3-17.7,6c-3.7,1.9-8.2,9.2-8.8,11.5S-0.1,31.8,0,35c0.1,3.2-0.1,6.9,1.6,6.4c8.6-2.6,12.3-2.5,13-3.2
		c0.6-0.6,0-5.1,0.7-8c0.6-2.7,1.4-2.6,2.4-3.8s4.4-4,7.8-4.8c3.4-0.7,9.1-0.8,11.3-0.1s5.7,1.6,6.8,2.9c1.8,2.1,3.1,4.5,3.4,5.6
		c0.3,1,0.4,1.2,0.8,4.6C47.7,34.7,47.7,37.6,48.1,37.9z"/>
	<path fill="#FFFFFF" d="M46.8,30.6c-2.2-1.3-30.6-0.5-31.3,0.1c-0.3,0.5-0.7,6.6-0.3,7.2c18.7-1.9,26-0.4,32.4,0
		C47.7,37.6,47.6,34.8,46.8,30.6z M18.5,34.8c-0.4,0-1-0.3-1-0.8s0.4-1.1,0.8-1.1s0.9,0.4,0.9,0.8S19,34.8,18.5,34.8z M23.3,34.2
		c-0.4,0-0.9-0.4-0.9-0.8s0.6-1,1-1s0.6,0.6,0.6,1S23.7,34.2,23.3,34.2z M28.3,34.2c-0.4,0-0.8-0.5-0.8-0.9c0-0.4,0.7-0.8,1.1-0.8
		s0.5,0.5,0.5,1C29.2,34,28.7,34.2,28.3,34.2z M33.7,34.1c-0.4,0-0.8-0.4-0.8-0.8c0-0.4,0.5-0.9,0.9-0.9s0.8,0.5,0.8,1
		C34.7,33.8,34.1,34.1,33.7,34.1z M38.3,33.5c0-0.4,0.6-0.8,1-0.8s0.8,0.6,0.8,1s-0.6,0.7-1,0.7S38.3,33.9,38.3,33.5z M39.5,37.2
		l-0.7,0c2.5-0.1,3.9-2,3.9-3.9c0-2.5-4-3.2-4-3.2h0.5c1.6,0.1,4.2,1.5,4.2,3.3C43.4,34.9,42,36.7,39.5,37.2z"/>
</g>
</svg>
