<svg version="1.1" xmlns="http://www.w3.org/2000/svg" xmlns:xlink="http://www.w3.org/1999/xlink" x="0px" y="0px"
	 width="170.309px" height="156.006px" viewBox="0 0 170.309 156.006" style="enable-background:new 0 0 170.309 156.006;"
	 xml:space="preserve">
<g id="Palette">
	<path style="fill:#FFFFFF;stroke:#FFFFFF;stroke-width:2;stroke-miterlimit:10;" d="M123.787,100.16c0,0-4.125,4.25-11.125,6
		c0,0,2.375,7.625-4.75,15.25c0,0,2.664,3.366,1.625,9.25c-1.125,6.375-10.875,13.25-20.75,10.75
		c-10.075-2.551-9.875-9.75-9.875-9.75s-17.375-1.041-25.875-6.125c-5.673-3.394-6.375-8.625-3.5-10.375
		c4.775-2.906,12.583,0.625,16.25-4.375s5.357-15.381,11.75-20.708c6-5,11.75-6.042,16.5-4.792c0,0-5-8.875-1-17.708
		c4-8.833,14-27.167,14.334-34.167c0.333-7,0.499-29-31.833-32.25c0,0-18.25-2.75-41.5,14.5s-33.75,51.75-33,69
		c0.75,17.25,3.25,39.75,28.5,57.5s76.25,16.25,92.75,0.75S132.787,108.91,123.787,100.16z M71.038,28.078c5.523,0,10,4.477,10,10
		s-4.477,10-10,10s-10-4.477-10-10S65.515,28.078,71.038,28.078z M40.205,50.411c6.812,0,12.333,5.521,12.333,12.333
		s-5.521,12.333-12.333,12.333s-12.333-5.521-12.333-12.333S33.393,50.411,40.205,50.411z M38.038,119.077
		c-6.72,0-12.167-5.447-12.167-12.167s5.447-12.167,12.167-12.167s12.167,5.447,12.167,12.167S44.757,119.077,38.038,119.077z"/>
	<path style="fill:#FFFFFF;stroke:#FFFFFF;stroke-width:2;stroke-miterlimit:10;" d="M166.871,31.911c0,0-4.167-4.667-16.834,6.167
		c-12.666,10.833-44.833,40.166-48.666,43.833c-3.834,3.667-3.5,13.668-0.5,16.334s10.499,10.999,27.666-8.334
		c17.167-19.333,37.834-43,39.334-45.666S170.537,36.078,166.871,31.911z"/>
	<path style="fill:#FFFFFF;stroke:#FFFFFF;stroke-width:2;stroke-miterlimit:10;" d="M95.037,99.535
		c-2.544-6.264-2-11.625-8.125-8.875C80.735,93.434,77.65,97.924,75,103.159c-3.153,6.229-2.996,17.107-20.812,15.845
		c-1.498-0.236,1.656,2.365,5.913,3.784c5.345,1.782,19.786,5.439,31.295,2.68c12.027-2.884,15.266-10.68,15.136-14.308
		C106.287,104.285,98.287,107.535,95.037,99.535z"/>
</g>
<g id="Layer_1">
</g>
</svg>
