<svg version="1.1" id="Layer_2_2_" xmlns="http://www.w3.org/2000/svg" xmlns:xlink="http://www.w3.org/1999/xlink" x="0px" y="0px"
	 width="492px" height="578px" viewBox="0 0 492 578" enable-background="new 0 0 492 578" xml:space="preserve">
<path fill="none" stroke="#1E1E1E" stroke-width="2" stroke-miterlimit="10" d="M33,578c0,0,1.5-16.5,3-20.8s0.5-6,1.5-8.2
	s5.2-10.8,5.8-14.8s0.8-19.8,3.2-25.8"/>
<path fill="none" stroke="#1E1E1E" stroke-width="2" stroke-miterlimit="10" d="M77.2,578c0,0-16.5-33-44.8-109.8"/>
<path fill="none" stroke="#1E1E1E" stroke-width="2" stroke-miterlimit="10" d="M121,322c0,0,6,18,6.2,27s1,18.5-0.2,27.8
	c0,0,2.2,3.8,1.8,7.2s-1.8,5.2-1.8,5.2s5.5,9.8,7.8,17.2s1.8,14,2.5,16s2,5,2.5,8.5s4.5,13.2,3.5,14.5s-11.8,5.8-16.8,7
	s-12.2,2.2-21,4S87.2,460,79,461.2s-37.5,6.8-62.8,7c0,0-4.8-87.5-4.2-96.5c0,0-2-10.5-2-31s0.5-38,7.2-53.5s18.5-28,35-36.2
	s49-20.5,52.8-21.8s6.8-3.5,9.2-5.2s17.5-9.5,39-9.5"/>
<path fill="none" stroke="#1E1E1E" stroke-width="2" stroke-miterlimit="10" d="M151.8,250.5c0,0,2.8-11,2.5-23.2s-0.8-36.8-1.5-43
	s-1.5-4.2-1.5-4.2s-2.5,4.5-4.8,4.5s-5.2-0.2-8.8-8.5s-7-12.8-9.8-17.8s-6.8-17.5-6.8-17.5s-4.8,4.8-8.2,0s4.2-11.2,7-13
	c0,0,3.5-14.2,2.2-28.2s-5.8-27.8,4.5-45.5s21.5-27,32.8-33.5s27.8-14.2,44.2-13.8s23.2,4.5,32.8,8s22.8,10,27.5,14
	s10.5,17.5,11.8,21.5s6.2,24,6.8,25.5S284.2,87,282,96s-1.5,21.5-1.5,21.5"/>
<path fill="none" stroke="#1E1E1E" stroke-width="2" stroke-miterlimit="10" d="M121.2,127.5c0,0,22-16.5,36.8-22s19.5-5.8,19.8-7.2
	s-3.5-16.8-3.5-21S171.8,62,179,53.5s12.5-13,19.8-16.2s12.2-6,21-7.5l-2.1,2.5c0,0,10.1-2.2,13.2-1l-3,2.2c0,0,13.4,2.8,16.4,6
	c0,0-1.1,3.2-0.9,3.6s2,4.5,3.6,8s5.1,9.5,7.8,12s4.4,5.8,5.5,13.5s1.9,13.8,1.2,18.6c0,0,4.9,1,9.1,6.1s6.5,9.2,8.6,16.5"/>
<path fill="none" stroke="#1E1E1E" stroke-width="2" stroke-miterlimit="10" d="M276.2,122.2c0,0,2.4-3.9,3.8-4.4s2.8,1.2,2.8,4.8
	s-0.5,8.9-1.1,11.9s-1.2,5.8-1.6,10.6s-1.4,10.2-1.4,12s1.6,14.9-5.1,17.5"/>
<path fill="none" stroke="#1E1E1E" stroke-width="2" stroke-miterlimit="10" d="M276.2,110.4c0,0-3.2,22.9-3.1,25.6s0.4,5.4,0.4,5.4
	l1-1.2c0,0,1.6,2.8,0.6,11.4s-2,17.8-1.9,20s1,10.8-1,19.2s-9.2,25.9-17.1,38.2s-10.8,21.8-28.3,22s-25.5-4-45.8-20.5
	s-21.7-24.2-24-29.8s-8.2-37.2-8.2-39.2s0.2-5.8-0.3-12.5s-7-30,0.8-39"/>
<path fill="none" stroke="#1E1E1E" stroke-width="2" stroke-miterlimit="10" d="M174.3,74.8c0,0,27.3-7.5,42.7-6.8s33.7,2,42.3,4.3"
	/>
<path fill="none" stroke="#1E1E1E" stroke-width="2" stroke-miterlimit="10" d="M177.3,96.2c0,0,28-4.7,44.3-4.7s35,2.5,39.8,3.8"/>
<path fill="none" stroke="#1E1E1E" stroke-width="2" stroke-miterlimit="10" d="M150.8,214.8c0,0-7,5-7.2,9s0.5,7.5,3.5,15.5
	s10.8,21,14.5,25s14.5,12.8,22.5,16s24.5,9.8,38,8.5s17.8-8,24.2-24.5s7.8-32.8,7.8-32.8"/>
<path fill="none" stroke="#1E1E1E" stroke-width="2" stroke-miterlimit="10" d="M260.8,219.2c0,0,15.5-1.3,18.7,0.2s5.5,3,5.5,3
	s6.5,1.2,11.7,6s10.5,6.2,12.7,12.3s1.5,7.2,1.5,7.2s6.5,3.3,12.8,20s6.2,27.7,6.2,27.7s3.8,5.3,6,15.8c0,0,6.7,12,9,17.5
	s8,13.8,9,15.7s7,11.3,6.2,14.3s-12.7,16.3-28.3,22.3s-25.8,7.8-33.3,7.5"/>
<path fill="none" stroke="#1E1E1E" stroke-width="2" stroke-miterlimit="10" d="M305.5,316.2c0,0,1,31-4,54.5s-8.2,42.2-9.8,48.8
	s-8,29.8-8.5,33.2"/>
<path fill="none" stroke="#1E1E1E" stroke-width="2" stroke-miterlimit="10" d="M296,399c0,0,15.2,19.5,15.5,29.5"/>
<path fill="none" stroke="#1E1E1E" stroke-width="2" stroke-miterlimit="10" d="M318.8,422.8c0,0-27,21-31.2,25.5s-6,10-12.2,13.2
	S263,467,257,470.8s-16.5,11.2-28.5,16.5s-14.8,6.2-31.8-3s-19-12.8-26.8-9.2s-33.8,19.2-35.8,20.5s-14.5,14.2-21.5,25.5
	s-19.2,32.5-12,37.5S114,550,128,534.2s34.5-31.8,37.8-34.2"/>
<path fill="none" stroke="#1E1E1E" stroke-width="2" stroke-miterlimit="10" d="M142.5,446.5c0,0,6.8,22.8,6.8,27.2"/>
<path fill="none" stroke="#1E1E1E" stroke-width="2" stroke-miterlimit="10" d="M134.8,494.2c0,0-6.8-7.5-6.8-13s5.5-7.2,11-6.5
	s9.8-0.5,11.5-1s11.5,4.8,11.5,4.8"/>
<path fill="none" stroke="#1E1E1E" stroke-width="2" stroke-miterlimit="10" d="M109,557.2c0,0-8.8,15.8-7.8,18.2s1,2.5,1,2.5"/>
<path fill="none" stroke="#1E1E1E" stroke-width="2" stroke-miterlimit="10" d="M120.8,578c0,0,16.8-20.5,22.8-27.8
	s18.2-22.2,37-33.5"/>
<path fill="none" stroke="#1E1E1E" stroke-width="2" stroke-miterlimit="10" d="M146.2,578c0,0,12.8-12.5,18.8-18.2
	s13.8-14.8,16-17.2s19.5-13.2,19.5-13.2"/>
<path fill="none" stroke="#1E1E1E" stroke-width="2" stroke-miterlimit="10" d="M174.8,578c0,0,28.5-25.5,40.2-29.5s25.2-4,29.2-5.8
	s54-21,72.8-33s41-28,48-33.5s17.2-17.2,14.5-43s-20.2-73-20.2-73"/>
<path fill="none" stroke="#1E1E1E" stroke-width="2" stroke-miterlimit="10" d="M244.2,542.8c0,0,17.5,3.8,22,5s19.5,6.5,41.2,8.8
	s32.8,2.2,35.8,2.8s14,3,17.8,2.5s19.8-3.5,22.8-3.5s12.2,0,17-5.5s15-24,16.2-26.8s1.5-8.5,3-9.8s10.5-10.2,13.2-16
	s5.8-15.8,8-16.5s6,0.5,6,1.5"/>
<polyline fill="none" stroke="#1E1E1E" stroke-width="2" stroke-miterlimit="10" points="377.5,422.2 394.2,406.8 492,434.2 "/>
<path fill="none" stroke="#1E1E1E" stroke-width="2" stroke-miterlimit="10" d="M492,436.2c0,0-13.8-4.2-28.2-1s-22.2,10-18.5,18
	s8.2,13,22.5,18.2s24.2,7.2,24.2,7.2"/>
<path fill="none" stroke="#1E1E1E" stroke-width="2" stroke-miterlimit="10" d="M451.8,462.5c0,0,9.2-8.8,22.2-7.8s11.2,0.8,18,2.2"
	/>
<line fill="none" stroke="#1E1E1E" stroke-width="2" stroke-miterlimit="10" x1="446.8" y1="456.5" x2="448.8" y2="518.2"/>
<path fill="none" stroke="#1E1E1E" stroke-width="2" stroke-miterlimit="10" d="M447.8,514.8c0,0,1.5,10,3.5,11.8s4.2,5,40.8-3.5"/>
<path fill="none" stroke="#1E1E1E" stroke-width="2" stroke-miterlimit="10" d="M448,487.8c0,0,1.5,10.5,14.8,17.8
	s20.8,9.5,29.2,10.8"/>
<path fill="none" stroke="#1E1E1E" stroke-width="2" stroke-miterlimit="10" d="M121.2,140.8c0,0-4.2-10.5,3-11.8s11.2,2.2,14,6.5
	s6.2,17.8,6.2,18.5s1.8-2.2,1.8-2.2l1.5,0.2"/>
</svg>
