<svg version="1.1" id="Layer_1" xmlns="http://www.w3.org/2000/svg" xmlns:xlink="http://www.w3.org/1999/xlink" x="0px" y="0px"
	 width="93.8px" height="78px" viewBox="0 0 93.8 78" style="enable-background:new 0 0 93.8 78;" xml:space="preserve">
<g id="Worker">
	<circle style="fill:#FFFFFF;stroke:#FFFFFF;stroke-miterlimit:10;" cx="41.4" cy="8.3" r="7.3"/>
	<path style="fill:#FFFFFF;stroke:#FFFFFF;stroke-miterlimit:10;" d="M92.3,72.5l-5.6-18.4l0.4-21.7L81,26.6l9.9-8
		c0,0-0.1-1.6-0.6-2.2s-1.9-0.8-1.9-0.8l-4.9,3.9L80.2,4.1L56.6,4.3l-10.1,15c0,0-0.1,2,0.7,3.5s8.8,16.1,8.8,16.1l-0.3,3.3
		L35.2,59.9c0,0-2.4,0.4-2.9,0.2c-0.6-0.2-2.6-2-4.2-3.2s-4-0.8-4.7-0.3c-0.9,0.6-4.2,6.2-4.2,6.2s-1.8,1.5-4.6,1.6
		s-3.3,3.2-3.9,4.4c-1.2,2.4-1.3,1.6-2.2,2.8s-2.7,0.7-5.3,2C2.3,74,0,77.9,0,77.9h54c0,0-0.4-1.6-1.2-2.3s-3.8-0.4-5.5-1.6
		c-2.2-1.5-2-4.6-3.9-5.9c-2.5-1.8-5.9-4.8-5.9-4.8s17.8-15.6,18.8-16.2s1.4-0.1,1.4-0.1l0.3,1.7c0,0-3,3.2-2.8,3.8
		S66,72.5,67.4,74.8c1.4,2.3,2,3.2,4.4,3.2s3.3-1,3.9-1.8c0.6-0.8,1.1-2.6,0.4-3.9s-11.2-20-11.2-20L77.3,39l0.9,16.8
		c0,0,3.8,14.1,4.9,18.2s3.1,4,6.7,2.9C93.2,75.7,92.3,72.5,92.3,72.5z M62.8,35.7c-0.8-0.8-3.1-6.8-3.1-6.8c0.4-0.7,7.1,2.8,7,3.4
		S63.7,36.5,62.8,35.7z M75.4,19.1l-5.2-5.2c0,0,1.2-1.3,3.3-1.2S75.5,13.5,75.4,19.1z"/>
</g>
<g id="Layer_1_1_">
</g>
</svg>
